<svg width="55" height="77" viewBox="0 0 55 77" fill="none" xmlns="http://www.w3.org/2000/svg">
<path d="M25.5 45H2.55469V41.0859L13.9219 28.6875C15.5625 26.8594 16.7266 25.3359 17.4141 24.1172C18.1172 22.8828 18.4688 21.6484 18.4688 20.4141C18.4688 18.7891 18.0078 17.4766 17.0859 16.4766C16.1797 15.4766 14.9531 14.9766 13.4062 14.9766C11.5625 14.9766 10.1328 15.5391 9.11719 16.6641C8.10156 17.7891 7.59375 19.3281 7.59375 21.2812H1.89844C1.89844 19.2031 2.36719 17.3359 3.30469 15.6797C4.25781 14.0078 5.60938 12.7109 7.35938 11.7891C9.125 10.8672 11.1562 10.4062 13.4531 10.4062C16.7656 10.4062 19.375 11.2422 21.2812 12.9141C23.2031 14.5703 24.1641 16.8672 24.1641 19.8047C24.1641 21.5078 23.6797 23.2969 22.7109 25.1719C21.7578 27.0312 20.1875 29.1484 18 31.5234L9.65625 40.4531H25.5V45ZM36.4219 25.3359H39.8906C41.6406 25.3203 43.0234 24.8672 44.0391 23.9766C45.0703 23.0859 45.5859 21.7969 45.5859 20.1094C45.5859 18.4844 45.1562 17.2266 44.2969 16.3359C43.4531 15.4297 42.1562 14.9766 40.4062 14.9766C38.875 14.9766 37.6172 15.4219 36.6328 16.3125C35.6484 17.1875 35.1562 18.3359 35.1562 19.7578H29.4609C29.4609 18.0078 29.9219 16.4141 30.8438 14.9766C31.7812 13.5391 33.0781 12.4219 34.7344 11.625C36.4062 10.8125 38.2734 10.4062 40.3359 10.4062C43.7422 10.4062 46.4141 11.2656 48.3516 12.9844C50.3047 14.6875 51.2812 17.0625 51.2812 20.1094C51.2812 21.6406 50.7891 23.0859 49.8047 24.4453C48.8359 25.7891 47.5781 26.8047 46.0312 27.4922C47.9062 28.1328 49.3281 29.1406 50.2969 30.5156C51.2812 31.8906 51.7734 33.5312 51.7734 35.4375C51.7734 38.5 50.7188 40.9375 48.6094 42.75C46.5156 44.5625 43.7578 45.4688 40.3359 45.4688C37.0547 45.4688 34.3672 44.5938 32.2734 42.8438C30.1797 41.0938 29.1328 38.7656 29.1328 35.8594H34.8281C34.8281 37.3594 35.3281 38.5781 36.3281 39.5156C37.3438 40.4531 38.7031 40.9219 40.4062 40.9219C42.1719 40.9219 43.5625 40.4531 44.5781 39.5156C45.5938 38.5781 46.1016 37.2188 46.1016 35.4375C46.1016 33.6406 45.5703 32.2578 44.5078 31.2891C43.4453 30.3203 41.8672 29.8359 39.7734 29.8359H36.4219V25.3359Z" fill="#1D2130"/>
<path d="M7.10156 70.0703C7.10156 69.5703 6.92448 69.1849 6.57031 68.9141C6.22135 68.6432 5.58854 68.3698 4.67188 68.0938C3.75521 67.8177 3.02604 67.5104 2.48438 67.1719C1.44792 66.5208 0.929688 65.6719 0.929688 64.625C0.929688 63.7083 1.30208 62.9531 2.04688 62.3594C2.79688 61.7656 3.76823 61.4688 4.96094 61.4688C5.7526 61.4688 6.45833 61.6146 7.07812 61.9062C7.69792 62.1979 8.1849 62.6146 8.53906 63.1562C8.89323 63.6927 9.07031 64.2891 9.07031 64.9453H7.10156C7.10156 64.3516 6.91406 63.888 6.53906 63.5547C6.16927 63.2161 5.63802 63.0469 4.94531 63.0469C4.29948 63.0469 3.79688 63.1849 3.4375 63.4609C3.08333 63.737 2.90625 64.1224 2.90625 64.6172C2.90625 65.0339 3.09896 65.3828 3.48438 65.6641C3.86979 65.9401 4.50521 66.2109 5.39062 66.4766C6.27604 66.737 6.98698 67.0365 7.52344 67.375C8.0599 67.7083 8.45312 68.0938 8.70312 68.5312C8.95312 68.9635 9.07812 69.4714 9.07812 70.0547C9.07812 71.0026 8.71354 71.7578 7.98438 72.3203C7.26042 72.8776 6.27604 73.1562 5.03125 73.1562C4.20833 73.1562 3.45052 73.0052 2.75781 72.7031C2.07031 72.3958 1.53385 71.974 1.14844 71.4375C0.768229 70.901 0.578125 70.276 0.578125 69.5625H2.55469C2.55469 70.2083 2.76823 70.7083 3.19531 71.0625C3.6224 71.4167 4.23438 71.5938 5.03125 71.5938C5.71875 71.5938 6.23438 71.4557 6.57812 71.1797C6.92708 70.8984 7.10156 70.5286 7.10156 70.0703ZM19.4609 67.9219H14.7891V71.4219H20.25V73H12.8125V61.625H20.1953V63.2188H14.7891V66.3594H19.4609V67.9219ZM25.8359 68.7734V73H23.8594V61.625H28.2109C29.4818 61.625 30.4896 61.9557 31.2344 62.6172C31.9844 63.2786 32.3594 64.1536 32.3594 65.2422C32.3594 66.3568 31.9922 67.224 31.2578 67.8438C30.5286 68.4635 29.5052 68.7734 28.1875 68.7734H25.8359ZM25.8359 67.1875H28.2109C28.9141 67.1875 29.4505 67.0234 29.8203 66.6953C30.1901 66.362 30.375 65.8828 30.375 65.2578C30.375 64.6432 30.1875 64.1536 29.8125 63.7891C29.4375 63.4193 28.9219 63.2292 28.2656 63.2188H25.8359V67.1875Z" fill="#1D2130"/>
</svg>
